sample_movement
version=1
nRows=5
nColumns=115
inDegrees=yes
endheader
time HIPS_TX HIPS_TY HIPS_TZ HIPS_RX HIPS_RY HIPS_RZ SPINE_TX SPINE_TY SPINE_TZ SPINE_RX SPINE_RY SPINE_RZ CHEST_TX CHEST_TY CHEST_TZ CHEST_RX CHEST_RY CHEST_RZ NECK_TX NECK_TY NECK_TZ NECK_RX NECK_RY NECK_RZ SHOULDER_L_TX SHOULDER_L_TY SHOULDER_L_TZ SHOULDER_L_RX SHOULDER_L_RY SHOULDER_L_RZ ARM_L_TX ARM_L_TY ARM_L_TZ ARM_L_RX ARM_L_RY ARM_L_RZ FOREARM_L_TX FOREARM_L_TY FOREARM_L_TZ FOREARM_L_RX FOREARM_L_RY FOREARM_L_RZ HAND_L_TX HAND_L_TY HAND_L_TZ HAND_L_RX HAND_L_RY HAND_L_RZ SHOULDER_R_TX SHOULDER_R_TY SHOULDER_R_TZ SHOULDER_R_RX SHOULDER_R_RY SHOULDER_R_RZ ARM_R_TX ARM_R_TY ARM_R_TZ ARM_R_RX ARM_R_RY ARM_R_RZ FOREARM_R_TX FOREARM_R_TY FOREARM_R_TZ FOREARM_R_RX FOREARM_R_RY FOREARM_R_RZ HAND_R_TX HAND_R_TY HAND_R_TZ HAND_R_RX HAND_R_RY HAND_R_RZ UPLEG_L_TX UPLEG_L_TY UPLEG_L_TZ UPLEG_L_RX UPLEG_L_RY UPLEG_L_RZ LEG_L_TX LEG_L_TY LEG_L_TZ LEG_L_RX LEG_L_RY LEG_L_RZ FOOT_L_TX FOOT_L_TY FOOT_L_TZ FOOT_L_RX FOOT_L_RY FOOT_L_RZ UPLEG_R_TX UPLEG_R_TY UPLEG_R_TZ UPLEG_R_RX UPLEG_R_RY UPLEG_R_RZ LEG_R_TX LEG_R_TY LEG_R_TZ LEG_R_RX LEG_R_RY LEG_R_RZ FOOT_R_TX FOOT_R_TY FOOT_R_TZ FOOT_R_RX FOOT_R_RY FOOT_R_RZ HEAD_TX HEAD_TY HEAD_TZ HEAD_RX HEAD_RY HEAD_RZ
3.35155678 0.24973300 0.77947301 0.85720497 147.30791219 26.88890310 -166.91359360 0.00000000 0.00000000 0.00000000 -3.89989903 0.00003799 0.00002735 0.00000000 0.00000000 0.00000000 -13.69229439 -26.44660134 3.02873199 0.00000000 0.00000000 0.00000000 9.19939753 -0.00000715 0.00003425 0.00000000 0.00000000 0.00000000 -6.32676735 -13.17779960 -15.59236138 0.00000000 0.00000000 0.00000000 -1.96871104 -20.57801246 -19.13912821 0.00000000 0.00000000 0.00000000 0.00007642 -63.66670760 0.00013149 0.00000000 0.00000000 0.00000000 21.73461928 -14.23554086 13.87739278 0.00000000 0.00000000 0.00000000 -4.39378762 6.91777484 13.89916039 0.00000000 0.00000000 0.00000000 31.99197962 -6.93091520 45.97645157 0.00000000 0.00000000 0.00000000 -0.00012490 49.75930859 0.00006316 0.00000000 0.00000000 0.00000000 -11.74550618 -2.18850746 4.77967143 0.00000000 0.00000000 0.00000000 11.28268011 13.33799297 4.00860644 0.00000000 0.00000000 0.00000000 8.41344733 -0.00085453 -0.00754495 0.00000000 0.00000000 0.00000000 -5.81720578 -13.34593513 0.13487391 0.00000000 0.00000000 0.00000000 -10.46353885 -14.12038211 -0.21969532 0.00000000 0.00000000 0.00000000 4.82537671 0.00140548 0.01333291 0.00000000 0.00000000 0.00000000 -5.01362167 10.40051770 -0.26334610 0.00000000 0.00000000 0.00000000 6.48147504 20.94733919 -13.28946619
3.36252189 0.24973300 0.77947301 0.85720497 147.30791219 26.88890310 -166.91359360 0.00000000 0.00000000 0.00000000 -3.89989903 0.00003799 0.00002735 0.00000000 0.00000000 0.00000000 -13.69229439 -26.44660134 3.02873199 0.00000000 0.00000000 0.00000000 9.19939753 -0.00000715 0.00003425 0.00000000 0.00000000 0.00000000 -6.32676735 -13.17779960 -15.59236138 0.00000000 0.00000000 0.00000000 -1.96871104 -20.57801246 -19.13912821 0.00000000 0.00000000 0.00000000 0.00007642 -63.66670760 0.00013149 0.00000000 0.00000000 0.00000000 21.73461928 -14.23554086 13.87739278 0.00000000 0.00000000 0.00000000 -4.39378762 6.91777484 13.89916039 0.00000000 0.00000000 0.00000000 31.99197962 -6.93091520 45.97645157 0.00000000 0.00000000 0.00000000 -0.00012490 49.75930859 0.00006316 0.00000000 0.00000000 0.00000000 -11.74550618 -2.18850746 4.77967143 0.00000000 0.00000000 0.00000000 11.28268011 13.33799297 4.00860644 0.00000000 0.00000000 0.00000000 8.41344733 -0.00085453 -0.00754495 0.00000000 0.00000000 0.00000000 -5.81720578 -13.34593513 0.13487391 0.00000000 0.00000000 0.00000000 -10.46353885 -14.12038211 -0.21969532 0.00000000 0.00000000 0.00000000 4.82537671 0.00140548 0.01333291 0.00000000 0.00000000 0.00000000 -5.01362167 10.40051770 -0.26334610 0.00000000 0.00000000 0.00000000 6.48147504 20.94733919 -13.28946619
3.37349677 0.26113701 0.77737200 0.85992199 148.24028956 27.84823315 -167.55592421 0.00000000 0.00000000 0.00000000 -6.28063762 0.00006329 0.00000441 0.00000000 0.00000000 0.00000000 -8.48753860 -24.69266133 4.64215896 0.00000000 0.00000000 0.00000000 9.19937135 0.00001417 0.00007923 0.00000000 0.00000000 0.00000000 -5.40697474 -11.24201853 -13.69792865 0.00000000 0.00000000 0.00000000 -2.23343177 -20.94582268 -25.60466358 0.00000000 0.00000000 0.00000000 0.00009995 -65.46011333 0.00012909 0.00000000 0.00000000 0.00000000 18.25111023 -8.27999107 29.20168595 0.00000000 0.00000000 0.00000000 -4.15882621 5.80831488 14.25012524 0.00000000 0.00000000 0.00000000 28.81689707 -6.80880216 46.32566928 0.00000000 0.00000000 0.00000000 -0.00002837 47.70106894 0.00000642 0.00000000 0.00000000 0.00000000 -5.80045342 -0.24396926 0.67368602 0.00000000 0.00000000 0.00000000 11.28219329 12.14955345 4.20970398 0.00000000 0.00000000 0.00000000 9.20733222 -0.00088140 -0.00741792 0.00000000 0.00000000 0.00000000 -2.74852672 -11.02371913 0.70092623 0.00000000 0.00000000 0.00000000 -9.50974079 -14.05958637 0.01839800 0.00000000 0.00000000 0.00000000 4.84554786 0.00149224 0.01333131 0.00000000 0.00000000 0.00000000 -2.41769913 11.38259410 -0.79999333 0.00000000 0.00000000 0.00000000 1.63151093 20.04438640 -11.14620489
3.38447881 0.26113701 0.77737200 0.85992199 148.24028956 27.84823315 -167.55592421 0.00000000 0.00000000 0.00000000 -6.28063762 0.00006329 0.00000441 0.00000000 0.00000000 0.00000000 -8.48753860 -24.69266133 4.64215896 0.00000000 0.00000000 0.00000000 9.19937135 0.00001417 0.00007923 0.00000000 0.00000000 0.00000000 -5.40697474 -11.24201853 -13.69792865 0.00000000 0.00000000 0.00000000 -2.23343177 -20.94582268 -25.60466358 0.00000000 0.00000000 0.00000000 0.00009995 -65.46011333 0.00012909 0.00000000 0.00000000 0.00000000 18.25111023 -8.27999107 29.20168595 0.00000000 0.00000000 0.00000000 -4.15882621 5.80831488 14.25012524 0.00000000 0.00000000 0.00000000 28.81689707 -6.80880216 46.32566928 0.00000000 0.00000000 0.00000000 -0.00002837 47.70106894 0.00000642 0.00000000 0.00000000 0.00000000 -5.80045342 -0.24396926 0.67368602 0.00000000 0.00000000 0.00000000 11.28219329 12.14955345 4.20970398 0.00000000 0.00000000 0.00000000 9.20733222 -0.00088140 -0.00741792 0.00000000 0.00000000 0.00000000 -2.74852672 -11.02371913 0.70092623 0.00000000 0.00000000 0.00000000 -9.50974079 -14.05958637 0.01839800 0.00000000 0.00000000 0.00000000 4.84554786 0.00149224 0.01333131 0.00000000 0.00000000 0.00000000 -2.41769913 11.38259410 -0.79999333 0.00000000 0.00000000 0.00000000 1.63151093 20.04438640 -11.14620489
3.39543486 0.26113701 0.77737200 0.85992199 148.24028956 27.84823315 -167.55592421 0.00000000 0.00000000 0.00000000 -6.28063762 0.00006329 0.00000441 0.00000000 0.00000000 0.00000000 -8.48753860 -24.69266133 4.64215896 0.00000000 0.00000000 0.00000000 9.19937135 0.00001417 0.00007923 0.00000000 0.00000000 0.00000000 -5.40697474 -11.24201853 -13.69792865 0.00000000 0.00000000 0.00000000 -2.23343177 -20.94582268 -25.60466358 0.00000000 0.00000000 0.00000000 0.00009995 -65.46011333 0.00012909 0.00000000 0.00000000 0.00000000 18.25111023 -8.27999107 29.20168595 0.00000000 0.00000000 0.00000000 -4.15882621 5.80831488 14.25012524 0.00000000 0.00000000 0.00000000 28.81689707 -6.80880216 46.32566928 0.00000000 0.00000000 0.00000000 -0.00002837 47.70106894 0.00000642 0.00000000 0.00000000 0.00000000 -5.80045342 -0.24396926 0.67368602 0.00000000 0.00000000 0.00000000 11.28219329 12.14955345 4.20970398 0.00000000 0.00000000 0.00000000 9.20733222 -0.00088140 -0.00741792 0.00000000 0.00000000 0.00000000 -2.74852672 -11.02371913 0.70092623 0.00000000 0.00000000 0.00000000 -9.50974079 -14.05958637 0.01839800 0.00000000 0.00000000 0.00000000 4.84554786 0.00149224 0.01333131 0.00000000 0.00000000 0.00000000 -2.41769913 11.38259410 -0.79999333 0.00000000 0.00000000 0.00000000 1.63151093 20.04438640 -11.14620489
